{
    "scenes": [
      {
        "nodes": [
          0
        ]
      }
    ],
    "nodes": [
      {
        "mesh": 0
      }
    ],
    "meshes": [
      {
        "primitives": [
          {
            "attributes": {
              "POSITION": 1,
              "TEXCOORD_0": 2
            },
            "indices": 0,
            "material": 0
          }
        ]
      }
    ],
    "images": [
      {
        "uri": "data:image/png;base64,"
      }
    ],
    "samplers": [
      {
        "magFilter": 9729,
        "minFilter": 9987,
        "wrapS": 33071,
        "wrapT": 33071
      }
    ],
    "materials": [
      {
        "pbrMetallicRoughness": {
          "baseColorTexture": {
            "index": 0
          },
          "metallicFactor": 0,
          "roughnessFactor": 1
        }
      }
    ],
    "textures": [
      {
        "sampler": 0,
        "source": 0
      }
    ],
    "buffers": [
      {
        "uri": "data:application/gltf-buffer;base64,",
        "byteLength": 36192
      },
      {
        "uri": "data:application/gltf-buffer;base64,",
        "byteLength": 36192
      },
      {
        "uri": "data:application/gltf-buffer;base64,",
        "byteLength": 24128
      },
      {
        "uri": "data:application/gltf-buffer;base64,",
        "byteLength": 36192
      },
      {
        "uri": "data:application/gltf-buffer;base64,",
        "byteLength": 36192
      }
    ],
    "bufferViews": [
      {
        "buffer": 0,
        "byteOffset": 0,
        "byteLength": 36192,
        "target": 34963
      },
      {
        "buffer": 1,
        "byteOffset": 0,
        "byteLength": 36192,
        "target": 34962
      },
      {
        "buffer": 2,
        "byteOffset": 0,
        "byteLength": 24128,
        "target": 34962
      },
      {
        "buffer": 3,
        "byteOffset": 0,
        "byteLength": 36192,
        "target": 34962
      },
      {
        "buffer": 4,
        "byteOffset": 0,
        "byteLength": 36192,
        "target": 34962
      }
    ],
    "accessors": [
      {
        "bufferView": 0,
        "byteOffset": 0,
        "componentType": 5125,
        "count": 9048,
        "type": "SCALAR",
        "max": [
          3015
        ],
        "min": [
          0
        ]
      },
      {
        "bufferView": 1,
        "byteOffset": 0,
        "componentType": 5126,
        "count": 3016,
        "type": "VEC3",
        "max": [
          1,
          0.7502410800385728,
          0.4897856817145463
        ],
        "min": [
          -1,
          -0.7502410800385728,
          -0.32146306179500717
        ]
      },
      {
        "bufferView": 2,
        "byteOffset": 0,
        "componentType": 5126,
        "count": 3016,
        "type": "VEC2",
        "max": [
          1,
          1
        ],
        "min": [
          0,
          0
        ]
      },
      {
        "bufferView": 3,
        "byteOffset": 0,
        "componentType": 5126,
        "count": 3016,
        "type": "VEC3",
        "max": [
          0.9375,
          0.6564609450337512,
          0.4897856817145463
        ],
        "min": [
          -0.9375,
          -0.7267960462873674,
          -0.32146306179500717
        ]
      },
      {
        "bufferView": 4,
        "byteOffset": 0,
        "componentType": 5126,
        "count": 3016,
        "type": "VEC3",
        "max": [
          0.5,
          1.5002410800385728,
          0
        ],
        "min": [
          -0.5,
          -1.6877410800385728,
          0
        ]
      }
    ],
    "asset": {
      "version": "2.0"
    }
  }